{
    "asset" : {
        "generator" : "Khronos glTF Blender I/O v1.3.48",
        "version" : "2.0"
    },
    "scene" : 0,
    "scenes" : [
        {
            "name" : "Scene",
            "nodes" : [
                0,
                1,
                2
            ]
        }
    ],
    "nodes" : [
        {
            "name" : "Light",
            "rotation" : [
                0.16907575726509094,
                0.7558803558349609,
                -0.27217137813568115,
                0.570947527885437
            ],
            "translation" : [
                4.076245307922363,
                5.903861999511719,
                -1.0054539442062378
            ]
        },
        {
            "name" : "Camera",
            "rotation" : [
                0.483536034822464,
                0.33687159419059753,
                -0.20870360732078552,
                0.7804827094078064
            ],
            "translation" : [
                7.358891487121582,
                4.958309173583984,
                6.925790786743164
            ]
        },
        {
            "mesh" : 0,
            "name" : "wave",
            "translation" : [
                10,
                10,
                -10
            ]
        }
    ],
    "materials" : [
        {
            "doubleSided" : true,
            "emissiveFactor" : [
                0,
                0,
                0
            ],
            "name" : "Material_V1",
            "pbrMetallicRoughness" : {
                "baseColorFactor" : [
                    0.013667382299900055,
                    0.8000000715255737,
                    0.12983998656272888,
                    1
                ],
                "metallicFactor" : 1,
                "roughnessFactor" : 0.03636366128921509
            }
        }
    ],
    "meshes" : [
        {
            "name" : "wave",
            "primitives" : [
                {
                    "attributes" : {
                        "POSITION" : 0,
                        "NORMAL" : 1
                    },
                    "indices" : 2,
                    "material" : 0
                }
            ]
        }
    ],
    "accessors" : [
        {
            "bufferView" : 0,
            "componentType" : 5126,
            "count" : 1720,
            "max" : [
                26,
                15,
                4.5
            ],
            "min" : [
                0,
                -7.5,
                -5.5
            ],
            "type" : "VEC3"
        },
        {
            "bufferView" : 1,
            "componentType" : 5126,
            "count" : 1720,
            "type" : "VEC3"
        },
        {
            "bufferView" : 2,
            "componentType" : 5123,
            "count" : 2580,
            "type" : "SCALAR"
        }
    ],
    "bufferViews" : [
        {
            "buffer" : 0,
            "byteLength" : 20640,
            "byteOffset" : 0
        },
        {
            "buffer" : 0,
            "byteLength" : 20640,
            "byteOffset" : 20640
        },
        {
            "buffer" : 0,
            "byteLength" : 5160,
            "byteOffset" : 41280
        }
    ],
    "buffers" : [
        {
            "byteLength" : 46440,
            "uri" : "data:application/octet-stream;base64,"
        }
    ]
}
